# xmcd
#
# Track frame offsets:
#	150
#	24240
#	37617
#	83397
#	103327
#	127860
#	150841
#	165787
#	179992
#	193734
#	213625
#	232350
#	246903
#	278082
#	302291
#
# Disc length: 4593 seconds
#
# Revision: 0
# Processed by: cddbd v1.5.2PL0 Copyright (c) Steve Scherf et al.
# Submitted via: EZCDAudioConverter 1.3.4.1
#
DISCID=b611ef0f
DTITLE=Leon Thomas - The Creator 1969-1973
DYEAR=1900
DGENRE=
TTITLE0=Leon Thomas - Shape Your Mind To Die
TTITLE1=Leon Thomas - Just In Time To See The Sun
TTITLE2=Leon Thomas - It's My Life I'm Fighting For
TTITLE3=Leon Thomas - The Creator Has A Master Plan
TTITLE4=Leon Thomas - Let The Rain Fall On Me
TTITLE5=Leon Thomas - China Doll
TTITLE6=Leon Thomas - Bags' Groove
TTITLE7=Leon Thomas - One
TTITLE8=Leon Thomas - Come Along
TTITLE9=Leon Thomas - Let's Go Down To Lucy's
TTITLE10=Johnny Hodges With Leon Thomas And Oliver Nelson - Welcome To New Yor
TTITLE10=k
TTITLE11=Leon Thomas - Love Each Other
TTITLE12=Leon Thomas - Balance Of Life (Peace Of Mind)
TTITLE13=Leon Thomas - Um Um Um
TTITLE14=Leon Thomas - Umbo Weti
EXTD=
EXTT0=
EXTT1=
EXTT2=
EXTT3=
EXTT4=
EXTT5=
EXTT6=
EXTT7=
EXTT8=
EXTT9=
EXTT10=
EXTT11=
EXTT12=
EXTT13=
EXTT14=
PLAYORDER=
